<svg width="16" height="16" viewBox="0 0 16 16" fill="none" xmlns="http://www.w3.org/2000/svg">
<path d="M6.15945 15.6347C6.15945 15.8539 6.30524 16 6.52392 16H9.47608C9.69476 16 9.84055 15.8539 9.84055 15.6347V10.0091C9.84055 9.86301 9.91344 9.78995 10.0592 9.78995H15.6355C15.8542 9.78995 16 9.64384 16 9.42466V6.57534C16 6.35616 15.8542 6.21005 15.6355 6.21005H10.0592C9.91344 6.21005 9.84055 6.13699 9.84055 5.99087V0.365297C9.84055 0.146119 9.69476 0 9.47608 0H6.52392C6.30524 0 6.15945 0.146119 6.15945 0.365297V5.99087C6.15945 6.13699 6.08656 6.21005 5.94077 6.21005H0.364465C0.145786 6.21005 0 6.35616 0 6.57534V9.42466C0 9.64384 0.145786 9.78995 0.364465 9.78995H5.94077C6.08656 9.78995 6.15945 9.86301 6.15945 10.0091V15.6347Z" fill="white"/>
</svg>
