<svg width="155" height="147" viewBox="0 0 155 147" fill="none" xmlns="http://www.w3.org/2000/svg">
<path fill-rule="evenodd" clip-rule="evenodd" d="M128.974 97.663C128.974 95.5388 127.26 93.8164 125.145 93.8164C123.03 93.8164 121.315 95.5388 121.315 97.663C121.315 99.7873 123.03 101.51 125.145 101.51C127.26 101.51 128.974 99.7873 128.974 97.663" fill="black"/>
<path fill-rule="evenodd" clip-rule="evenodd" d="M117.629 97.663C117.629 95.5388 115.915 93.8164 113.8 93.8164C111.685 93.8164 109.971 95.5388 109.971 97.663C109.971 99.7873 111.685 101.51 113.8 101.51C115.915 101.51 117.629 99.7873 117.629 97.663" fill="black"/>
<path fill-rule="evenodd" clip-rule="evenodd" d="M106.284 97.663C106.284 95.5388 104.569 93.8164 102.454 93.8164C100.34 93.8164 98.625 95.5388 98.625 97.663C98.625 99.7873 100.34 101.51 102.454 101.51C104.569 101.51 106.284 99.7873 106.284 97.663" fill="black"/>
<mask id="mask0_1809_80609" style="mask-type:alpha" maskUnits="userSpaceOnUse" x="0" y="0" width="155" height="147">
<path fill-rule="evenodd" clip-rule="evenodd" d="M0 146.571H154.794V0H0V146.571Z" fill="white"/>
</mask>
<g mask="url(#mask0_1809_80609)">
<path fill-rule="evenodd" clip-rule="evenodd" d="M24.2783 144.028H130.516V116.056H24.2783V144.028Z" stroke="black" stroke-width="5.8464"/>
<path fill-rule="evenodd" clip-rule="evenodd" d="M24.2783 79.2703H130.516V2.54272H24.2783V79.2703Z" stroke="black" stroke-width="5.8464"/>
<path d="M24.2783 124.913H17.6087C9.28128 124.913 2.53125 118.132 2.53125 109.768V86.9467C2.53125 78.5822 9.28128 71.8013 17.6087 71.8013H24.2783" stroke="black" stroke-width="5.8464"/>
<path d="M130.516 71.8013H137.185C145.513 71.8013 152.263 78.5822 152.263 86.9467V109.768C152.263 118.132 145.513 124.913 137.185 124.913H130.516" stroke="black" stroke-width="5.8464"/>
<path fill-rule="evenodd" clip-rule="evenodd" d="M62.084 42.4606C62.084 51.2187 69.1521 58.3186 77.8709 58.3186C86.5902 58.3186 93.6583 51.2187 93.6583 42.4606C93.6583 33.7025 86.5902 26.6025 77.8709 26.6025C69.1521 26.6025 62.084 33.7025 62.084 42.4606Z" stroke="black" stroke-width="5.8464"/>
<path d="M111.039 79.2719C111.582 77.6689 111.876 75.9509 111.876 74.1632C111.876 65.4052 104.808 58.3052 96.0892 58.3052C87.3699 58.3052 80.3018 65.4052 80.3018 74.1632C80.3018 75.9509 80.5961 77.6689 81.1387 79.2719" stroke="black" stroke-width="5.8464"/>
<path d="M74.6807 79.2712C75.2234 77.6686 75.5177 75.9506 75.5177 74.1635C75.5177 65.4049 68.4496 58.3049 59.7303 58.3049C51.0115 58.3049 43.9434 65.4049 43.9434 74.1635C43.9434 75.9502 44.2377 77.6682 44.7798 79.2707" stroke="black" stroke-width="5.8464"/>
<path d="M59.7305 58.3187H77.91" stroke="black" stroke-width="5.8464"/>
<path d="M91.25 34.0393L109.981 66.6254" stroke="black" stroke-width="5.8464"/>
</g>
</svg>
