<svg width="132" height="118" viewBox="0 0 132 118" fill="none" xmlns="http://www.w3.org/2000/svg">
<path fill-rule="evenodd" clip-rule="evenodd" d="M23.8466 104.899C30.2715 104.941 35.4896 99.7634 35.5243 93.3122C35.559 86.9389 30.4042 81.7286 24.0006 81.6653C17.5769 81.6015 12.3078 86.7882 12.2776 93.2058C12.2468 99.6525 17.3954 104.857 23.8466 104.899ZM23.9368 12.2377C17.4856 12.2326 12.2854 17.4087 12.2765 23.8431C12.2675 30.231 17.4615 35.4665 23.8153 35.4726C30.2956 35.4788 35.4862 30.3559 35.5243 23.9165C35.5624 17.4905 30.3561 12.2427 23.9368 12.2377ZM44.7083 35.3455C49.8973 38.9793 55.0241 42.5701 60.213 46.2039C61.8186 45.0805 63.4168 43.9622 65.015 42.8439C78.1179 33.6711 91.2034 24.4737 104.33 15.335C113.059 9.25791 125.054 11.2935 131.381 19.8453C131.569 20.0995 131.738 20.3683 131.96 20.6959C113.947 33.3093 95.9842 45.8881 77.876 58.5687C95.936 71.2152 113.911 83.8017 131.962 96.4415C131.733 96.7769 131.549 97.0665 131.344 97.3403C125.011 105.842 113.056 107.872 104.361 101.819C89.9154 91.7644 75.5173 81.6418 61.0984 71.5489C60.8111 71.3479 60.5188 71.1547 60.2041 70.9413C55.0532 74.5483 49.9258 78.139 44.9082 81.653C45.648 83.8118 46.5306 85.8497 47.0446 87.9771C50.3878 101.812 40.5089 115.621 26.3336 117.022C12.0614 118.433 -0.157197 107.322 0.0130433 93.0871C0.216323 76.0536 17.6642 64.7113 33.2955 71.4677C33.9552 71.7528 34.406 71.7472 35.0198 71.3132C40.7872 67.2319 46.5843 63.1926 52.3719 59.1388C52.6015 58.9781 52.8177 58.7983 53.1083 58.5749C52.8569 58.3744 52.6726 58.2114 52.4722 58.0709C46.6067 53.961 40.7357 49.859 34.8792 45.7363C34.4088 45.4053 34.0549 45.3465 33.4999 45.5879C18.8005 51.982 2.35496 42.7246 0.211843 26.8682C-1.5684 13.6914 8.0804 1.45599 21.3009 0.127666C35.4879 -1.29809 47.4999 9.41191 47.6814 23.6885C47.7334 27.781 46.7266 31.6389 44.7083 35.3455Z" fill="black"/>
</svg>
