<svg width="125" height="152" viewBox="0 0 125 152" fill="none" xmlns="http://www.w3.org/2000/svg">
<mask id="mask0_1809_80585" style="mask-type:alpha" maskUnits="userSpaceOnUse" x="0" y="0" width="125" height="110">
<path fill-rule="evenodd" clip-rule="evenodd" d="M0 0.560059H124.165V109.079H0V0.560059Z" fill="white"/>
</mask>
<g mask="url(#mask0_1809_80585)">
<path fill-rule="evenodd" clip-rule="evenodd" d="M73.4974 0.560059C43.0973 0.560059 32.3587 47.6729 22.3767 85.6358C18.7468 82.0059 7.63022 70.8893 7.63022 70.9649C5.3611 68.772 2.79014 69.4524 1.27758 71.0405C-0.310576 72.6287 -0.537376 75.5777 1.27758 77.317C1.35318 77.3926 16.3265 92.2903 21.5445 97.4328C22.9815 98.7941 25.0233 99.6257 27.1406 98.4161C29.258 97.1304 29.5604 94.7862 29.636 94.7862C47.332 15.3821 63.2125 9.48366 73.4974 9.48366C82.1942 9.48366 92.1762 15.8357 92.1762 28.6161C105.108 28.6161 113.199 45.5555 102.764 55.9917C111.384 60.1508 115.241 65.2933 115.241 71.7209C115.241 78.2248 109.797 84.8037 101.856 84.8037C93.9912 84.8037 89.9833 79.7373 83.858 79.7373C81.0597 79.7373 79.3959 82.0059 79.3959 84.1989V100.231H67.7501V84.2745C67.7501 81.7791 65.8596 79.8129 63.591 79.8129C63.591 79.8129 62.6077 79.8129 62.6077 79.8885L47.1052 81.7791C45.2146 82.0815 43.4753 84.1233 43.4753 86.165C43.4753 88.5848 45.517 90.6265 48.2392 90.6265C48.6177 90.6265 49.0713 90.6265 48.9957 90.5509L58.8265 89.2657V105.146C58.8265 107.112 61.0951 109.079 63.1369 109.079H83.7824C86.2021 109.079 88.2439 107.037 88.2439 104.617V90.1729C92.5542 92.8201 98.5283 93.8029 101.629 93.8029C113.199 93.8029 124.24 84.7281 124.165 71.4185C124.089 59.3948 114.863 53.3445 114.863 53.3445C120.308 38.901 111.535 24.9861 100.116 21.1294C96.1085 6.30734 83.4038 0.560059 73.4974 0.560059Z" fill="#231F20"/>
</g>
<mask id="mask1_1809_80585" style="mask-type:alpha" maskUnits="userSpaceOnUse" x="0" y="0" width="125" height="110">
<path fill-rule="evenodd" clip-rule="evenodd" d="M0 0.560059H124.165V109.079H0V0.560059Z" fill="white"/>
</mask>
<g mask="url(#mask1_1809_80585)">
<path fill-rule="evenodd" clip-rule="evenodd" d="M73.4974 0.560059C43.0973 0.560059 32.3587 47.6729 22.3767 85.6358C18.7468 82.0059 7.63022 70.8893 7.63022 70.9649C5.3611 68.772 2.79014 69.4524 1.27758 71.0405C-0.310576 72.6287 -0.537376 75.5777 1.27758 77.317C1.35318 77.3926 16.3265 92.2903 21.5445 97.4328C22.9815 98.7941 25.0233 99.6257 27.1406 98.4161C29.258 97.1304 29.5604 94.7862 29.636 94.7862C47.332 15.3821 63.2125 9.48366 73.4974 9.48366C82.1942 9.48366 92.1762 15.8357 92.1762 28.6161C105.108 28.6161 113.199 45.5555 102.764 55.9917C111.384 60.1508 115.241 65.2933 115.241 71.7209C115.241 78.2248 109.797 84.8037 101.856 84.8037C93.9912 84.8037 89.9833 79.7373 83.858 79.7373C81.0597 79.7373 79.3959 82.0059 79.3959 84.1989V100.231H67.7501V84.2745C67.7501 81.7791 65.8596 79.8129 63.591 79.8129C63.591 79.8129 62.6077 79.8129 62.6077 79.8885L47.1052 81.7791C45.2146 82.0815 43.4753 84.1233 43.4753 86.165C43.4753 88.5848 45.517 90.6265 48.2392 90.6265C48.6177 90.6265 49.0713 90.6265 48.9957 90.5509L58.8265 89.2657V105.146C58.8265 107.112 61.0951 109.079 63.1369 109.079H83.7824C86.2021 109.079 88.2439 107.037 88.2439 104.617V90.1729C92.5542 92.8201 98.5283 93.8029 101.629 93.8029C113.199 93.8029 124.24 84.7281 124.165 71.4185C124.089 59.3948 114.863 53.3445 114.863 53.3445C120.308 38.901 111.535 24.9861 100.116 21.1294C96.1085 6.30734 83.4038 0.560059 73.4974 0.560059Z" fill="#231F20"/>
</g>
<mask id="mask2_1809_80585" style="mask-type:alpha" maskUnits="userSpaceOnUse" x="59" y="119" width="29" height="32">
<path fill-rule="evenodd" clip-rule="evenodd" d="M59.3076 119.74H87.4875V150.823H59.3076V119.74Z" fill="white"/>
</mask>
<g mask="url(#mask2_1809_80585)">
<path fill-rule="evenodd" clip-rule="evenodd" d="M60.5661 126.775C60.5661 130.48 64.7252 132.749 71.607 136.001C77.0519 138.572 80.1526 141.219 80.1526 143.412C80.1526 146.89 76.3709 148.176 72.8172 148.176C67.3723 148.176 64.1204 145.983 62.3054 141.143L62.1542 140.765H61.7006C60.7173 140.765 59.9613 140.841 59.5827 141.294C59.2047 141.823 59.2803 142.428 59.4315 143.109L60.6417 148.1C60.9441 149.31 61.3977 149.537 63.3644 149.915C64.196 150.067 68.6575 150.823 72.363 150.823C82.7992 150.823 87.4875 146.588 87.4875 142.353C87.4875 139.328 84.4629 136.379 77.8835 133.127L74.9345 131.69C70.4725 129.573 67.7503 128.287 67.7503 126.019C67.7503 123.825 70.5481 122.313 74.5565 122.313C79.7741 122.313 81.211 125.262 81.8158 127.758L81.9676 128.212H82.4968C83.6308 128.212 84.3873 128.136 84.8409 127.682C85.0677 127.379 85.2189 127.077 85.1433 126.623L84.7653 122.313C84.6141 120.952 83.5552 120.725 82.1188 120.423C80.3794 120.12 78.2621 119.742 75.0857 119.742C65.9353 119.666 60.5661 122.313 60.5661 126.775Z" fill="#231F20"/>
</g>
<path fill-rule="evenodd" clip-rule="evenodd" d="M90.6641 135.547C90.6641 143.109 97.2435 150.747 109.796 150.747C116.149 150.747 119.703 149.31 122.35 147.874L123.03 147.495L121.896 146.21L121.972 146.285C121.67 145.907 121.443 145.832 121.064 145.832L120.459 146.059C119.477 146.512 116.603 147.874 111.309 147.874C104.806 147.874 97.8483 143.638 97.8483 134.337C97.8483 125.489 105.411 122.388 111.914 122.388C116.603 122.388 119.022 124.052 119.552 127.455L119.628 127.985H120.233C120.762 127.985 122.274 127.985 122.274 126.85V121.708C122.274 120.422 120.837 120.271 120.233 120.196L119.628 120.12C118.115 119.893 116.678 119.741 112.897 119.741C99.9657 119.666 90.6641 126.321 90.6641 135.547Z" fill="#231F20"/>
<path fill-rule="evenodd" clip-rule="evenodd" d="M43.3236 120.044L31.9802 120.12L24.418 119.969H23.2834C22.603 119.969 22.1494 120.422 22.1494 121.179C22.1494 121.481 22.1494 122.539 23.4346 122.539C27.9723 122.539 28.1991 122.918 28.1991 124.657L28.2747 125.791L28.3503 130.405V140.387C28.3503 142.05 28.2747 144.697 28.1991 146.814C28.1991 147.42 28.1235 148.025 24.1156 148.025C22.981 148.025 22.3006 148.251 22.3006 149.386C22.3006 149.688 22.3006 150.595 23.359 150.595H23.5858C24.04 150.595 25.3252 150.52 31.6778 150.52C38.4079 150.52 39.7693 150.595 40.2229 150.595H40.4497C41.3574 150.595 42.1134 150.52 42.1134 149.386C42.1134 148.176 41.1306 148.025 39.3913 148.025C35.3833 148.025 35.3077 147.42 35.3077 146.814C35.2321 144.848 35.1565 142.202 35.1565 140.387V136.757H38.5591C43.7772 136.757 44.3069 136.908 45.0629 140.916C45.2897 141.748 45.9701 141.899 46.5755 141.899C47.7851 141.899 47.9363 141.218 47.9363 140.916L47.8607 139.403C47.7851 138.572 47.7095 137.513 47.7095 136.001V129.875C47.7095 128.968 46.5755 128.968 45.9701 128.968C44.9873 128.968 44.7605 129.573 44.1552 132.522C43.8528 133.656 41.7354 134.261 38.2567 134.261H35.2321V125.262C35.2321 122.842 35.6857 122.766 36.2149 122.766C38.1811 122.691 43.0212 122.539 44.4581 122.539C45.8189 122.539 47.1047 122.842 47.9363 123.372C50.5078 124.96 51.7936 126.018 52.6252 126.699C53.3812 127.304 53.8353 127.682 54.4401 127.682C54.8181 127.682 55.8771 127.682 55.8771 126.775C55.8771 126.548 55.8015 126.321 55.4229 125.565C55.0449 124.657 54.2889 123.145 53.3812 120.8C53.1544 120.044 52.2472 120.044 50.659 120.044H43.3236Z" fill="#231F20"/>
<path fill-rule="evenodd" clip-rule="evenodd" d="M117.056 2.60181C119.098 2.60181 120.913 3.35781 122.35 4.79477C123.863 6.30733 124.543 8.04669 124.543 10.0884C124.543 12.1302 123.787 13.9452 122.35 15.3821C120.838 16.8191 119.098 17.5751 117.056 17.5751C114.939 17.5751 113.2 16.8191 111.687 15.3821C110.175 13.8696 109.494 12.1302 109.494 10.0128C109.494 7.97109 110.25 6.15613 111.687 4.71917C113.2 3.28221 115.015 2.60181 117.056 2.60181ZM117.056 16.3649C118.796 16.3649 120.233 15.7601 121.518 14.55C122.728 13.3404 123.408 11.8278 123.408 10.0884C123.408 8.34909 122.804 6.91213 121.518 5.62693C120.308 4.41677 118.796 3.81197 117.056 3.81197C115.317 3.81197 113.804 4.41677 112.595 5.62693C111.385 6.83653 110.78 8.34909 110.78 10.0884C110.78 11.8278 111.385 13.3404 112.595 14.55C113.804 15.7601 115.317 16.3649 117.056 16.3649ZM120.611 14.2476H119.023C118.04 12.4326 117.359 11.3742 117.056 11.1474C116.754 10.92 116.376 10.7688 115.922 10.7688H115.166V14.172H113.88V6.15613H116.678C117.51 6.15613 118.115 6.23173 118.645 6.38293C119.098 6.45853 119.476 6.76093 119.779 7.13893C120.082 7.51749 120.233 7.97109 120.233 8.42469C120.233 8.95389 120.006 9.48365 119.627 9.93725C119.249 10.3908 118.645 10.6176 117.888 10.6932C118.342 10.8444 119.023 11.5254 119.779 12.735L120.611 14.2476ZM115.09 9.71045H116.678C117.434 9.71045 117.888 9.55925 118.191 9.40805C118.493 9.18125 118.645 8.87829 118.645 8.50029C118.645 8.12229 118.493 7.81989 118.267 7.59309C117.964 7.36629 117.434 7.29069 116.603 7.29069H115.09V9.71045Z" fill="#231F20"/>
<path fill-rule="evenodd" clip-rule="evenodd" d="M117.056 2.98004C115.09 2.98004 113.351 3.66044 111.99 5.0974C110.553 6.53436 109.872 8.12252 109.872 10.0887C109.872 12.0548 110.553 13.7186 111.99 15.1556C113.351 16.5164 115.09 17.2729 117.056 17.2729C119.023 17.2729 120.686 16.592 122.123 15.1556C123.484 13.7942 124.241 12.0548 124.241 10.0887C124.241 8.12252 123.56 6.45876 122.123 5.0218C120.686 3.66044 119.023 2.98004 117.056 2.98004ZM117.056 18.0289C114.863 18.0289 112.973 17.2729 111.46 15.6848C109.872 14.1722 109.116 12.2816 109.116 10.0887C109.116 7.89572 109.872 6.00516 111.46 4.4926C112.973 2.98004 114.939 2.14844 117.056 2.14844C119.174 2.14844 121.064 2.90444 122.653 4.4926C124.241 6.00516 124.997 7.89572 124.997 10.0887C124.997 12.2816 124.241 14.1722 122.653 15.6848C121.14 17.1973 119.249 18.0289 117.056 18.0289Z" fill="#231F20"/>
<path fill-rule="evenodd" clip-rule="evenodd" d="M117.056 4.19008C115.468 4.19008 114.031 4.79488 112.897 5.92944C111.762 7.064 111.157 8.4248 111.157 10.0886C111.157 11.6767 111.762 13.1137 112.897 14.2477C114.031 15.3822 115.468 15.987 117.056 15.987C118.72 15.987 120.081 15.3822 121.215 14.2477C122.35 13.1137 122.954 11.7523 122.954 10.0886C122.954 8.4248 122.35 7.1396 121.215 5.92944C120.081 4.79488 118.644 4.19008 117.056 4.19008ZM117.056 16.8192C115.241 16.8192 113.653 16.1382 112.291 14.853C111.006 13.5673 110.325 11.9791 110.325 10.0886C110.325 8.2736 111.006 6.68544 112.291 5.40024C113.577 4.11448 115.165 3.43408 117.056 3.43408C118.871 3.43408 120.459 4.11448 121.82 5.40024C123.106 6.68544 123.786 8.2736 123.786 10.0886C123.786 11.9035 123.106 13.4917 121.82 14.853C120.459 16.1382 118.871 16.8192 117.056 16.8192Z" fill="#231F20"/>
<path fill-rule="evenodd" clip-rule="evenodd" d="M114.183 13.8698H114.712V10.4666H115.922C116.451 10.4666 116.981 10.6178 117.283 10.9202C117.283 10.9202 117.359 10.9202 117.359 10.9958V10.391L117.737 10.3154C118.417 10.2398 118.871 10.0886 119.174 9.71064C119.552 9.33264 119.703 8.95408 119.703 8.50048C119.703 8.12248 119.552 7.82008 119.325 7.51768C119.098 7.21472 118.795 6.83672 118.417 6.76112C118.039 6.60992 117.435 6.60992 116.602 6.60992H114.183V13.8698ZM119.249 13.8698H119.93L119.325 12.8864C118.342 11.2988 117.813 11.0714 117.661 11.0714L117.435 10.9958C117.813 11.45 118.417 12.3572 119.249 13.8698ZM121.291 14.6258H118.72L118.569 14.399C117.208 11.9036 116.754 11.45 116.678 11.45C116.451 11.2988 116.149 11.2232 115.771 11.2232H115.393V14.6258H113.275V5.77832H116.527C117.435 5.77832 118.115 5.85392 118.569 6.00512C119.174 6.08072 119.627 6.38312 119.93 6.83672C120.232 7.29032 120.459 7.82008 120.459 8.34928C120.459 9.02968 120.232 9.63504 119.779 10.0886C119.476 10.391 119.174 10.6178 118.72 10.769C119.098 11.1476 119.476 11.6768 120.005 12.4328L121.291 14.6258Z" fill="#231F20"/>
<path fill-rule="evenodd" clip-rule="evenodd" d="M115.468 9.33227H116.678C117.434 9.33227 117.812 9.18107 117.964 9.10547C118.115 8.95427 118.19 8.80307 118.19 8.50067C118.19 8.27331 118.115 8.04651 117.964 7.89531C117.888 7.81971 117.586 7.66851 116.527 7.66851H115.393V9.33227H115.468ZM116.678 10.0883H114.637V6.83691H116.527C117.434 6.83691 118.039 6.98811 118.418 7.21491C118.796 7.51731 119.023 7.89531 119.023 8.42507C119.023 8.95427 118.796 9.33227 118.418 9.63467C118.039 10.0127 117.51 10.0883 116.678 10.0883Z" fill="#231F20"/>
</svg>
