<svg width="25" height="26" viewBox="0 0 25 26" fill="none" xmlns="http://www.w3.org/2000/svg">
<g clip-path="url(#clip0_533_2843)">
<path d="M0.5 0.5H4.63L7.77 13.93H22.11L24.17 4.08H8.47" stroke="white" stroke-miterlimit="10" stroke-linecap="round"/>
<path d="M21.4602 17.9599H7.68016C6.57016 17.9599 5.66016 17.0599 5.66016 15.9399C5.66016 14.8299 6.56016 13.9199 7.68016 13.9199H13.6902" stroke="white" stroke-width="1.1" stroke-miterlimit="10" stroke-linecap="round"/>
<path d="M7.55012 24.6598C8.7541 24.6598 9.73012 23.6838 9.73012 22.4798C9.73012 21.2758 8.7541 20.2998 7.55012 20.2998C6.34614 20.2998 5.37012 21.2758 5.37012 22.4798C5.37012 23.6838 6.34614 24.6598 7.55012 24.6598Z" stroke="white" stroke-width="1.1" stroke-miterlimit="10" stroke-linecap="round"/>
<path d="M20.8802 24.6598C22.0842 24.6598 23.0602 23.6838 23.0602 22.4798C23.0602 21.2758 22.0842 20.2998 20.8802 20.2998C19.6762 20.2998 18.7002 21.2758 18.7002 22.4798C18.7002 23.6838 19.6762 24.6598 20.8802 24.6598Z" stroke="white" stroke-width="1.1" stroke-miterlimit="10" stroke-linecap="round"/>
</g>
<defs>
<clipPath id="clip0_533_2843">
<rect width="24.79" height="25.21" fill="white"/>
</clipPath>
</defs>
</svg>
