<svg width="25" height="26" viewBox="0 0 25 26" fill="none" xmlns="http://www.w3.org/2000/svg">
<g clip-path="url(#clip0_1137_2312)">
<path d="M0.5 0.5H4.63L7.77 13.93H22.11L24.17 4.08H8.47" stroke="black" stroke-miterlimit="10" stroke-linecap="round"/>
<path d="M21.46 17.96H7.68003C6.57003 17.96 5.66003 17.06 5.66003 15.94C5.66003 14.83 6.56003 13.92 7.68003 13.92H13.69" stroke="black" stroke-width="1.1" stroke-miterlimit="10" stroke-linecap="round"/>
<path d="M7.55 24.66C8.75398 24.66 9.72999 23.684 9.72999 22.48C9.72999 21.2761 8.75398 20.3 7.55 20.3C6.34601 20.3 5.37 21.2761 5.37 22.48C5.37 23.684 6.34601 24.66 7.55 24.66Z" stroke="black" stroke-width="1.1" stroke-miterlimit="10" stroke-linecap="round"/>
<path d="M20.8799 24.66C22.0839 24.66 23.0599 23.684 23.0599 22.48C23.0599 21.2761 22.0839 20.3 20.8799 20.3C19.676 20.3 18.7 21.2761 18.7 22.48C18.7 23.684 19.676 24.66 20.8799 24.66Z" stroke="black" stroke-width="1.1" stroke-miterlimit="10" stroke-linecap="round"/>
</g>
<defs>
<clipPath id="clip0_1137_2312">
<rect width="24.79" height="25.21" fill="white"/>
</clipPath>
</defs>
</svg>
