<svg width="160" height="40" viewBox="0 0 160 40" fill="none" xmlns="http://www.w3.org/2000/svg">
<rect width="160" height="40" rx="20" fill="#00ADEE"/>
<path d="M39.283 21.972C39.127 21.504 39.049 20.7067 39.049 19.58C39.049 18.4533 39.127 17.656 39.283 17.188C39.5083 16.4773 39.8853 15.94 40.414 15.576C40.9427 15.2033 41.5883 15.017 42.351 15.017C43.053 15.017 43.6597 15.186 44.171 15.524C44.691 15.8533 45.081 16.317 45.341 16.915C45.367 16.993 45.3453 17.045 45.276 17.071L44.171 17.604C44.093 17.6473 44.0367 17.6257 44.002 17.539C43.6553 16.7763 43.105 16.395 42.351 16.395C41.5623 16.395 41.0337 16.785 40.765 17.565C40.661 17.8857 40.609 18.5573 40.609 19.58C40.609 20.6027 40.661 21.2743 40.765 21.595C41.0337 22.375 41.5623 22.765 42.351 22.765C43.105 22.765 43.6553 22.3837 44.002 21.621C44.0367 21.5343 44.093 21.5127 44.171 21.556L45.276 22.089C45.3453 22.115 45.367 22.167 45.341 22.245C45.081 22.843 44.691 23.311 44.171 23.649C43.6597 23.9783 43.053 24.143 42.351 24.143C41.5883 24.143 40.9427 23.961 40.414 23.597C39.8853 23.2243 39.5083 22.6827 39.283 21.972ZM46.7865 23.87V15.29C46.7865 15.2033 46.8299 15.16 46.9165 15.16H48.1905C48.2772 15.16 48.3205 15.2033 48.3205 15.29V18.774C48.3205 18.826 48.3465 18.852 48.3985 18.852H51.7655C51.8175 18.852 51.8435 18.826 51.8435 18.774V15.29C51.8435 15.2033 51.8869 15.16 51.9735 15.16H53.2475C53.3342 15.16 53.3775 15.2033 53.3775 15.29V23.87C53.3775 23.9567 53.3342 24 53.2475 24H51.9735C51.8869 24 51.8435 23.9567 51.8435 23.87V20.308C51.8435 20.256 51.8175 20.23 51.7655 20.23H48.3985C48.3465 20.23 48.3205 20.256 48.3205 20.308V23.87C48.3205 23.9567 48.2772 24 48.1905 24H46.9165C46.8299 24 46.7865 23.9567 46.7865 23.87ZM58.4245 24.143C57.6531 24.143 56.9945 23.961 56.4485 23.597C55.9111 23.233 55.5298 22.7043 55.3045 22.011C55.1485 21.543 55.0705 20.7327 55.0705 19.58C55.0705 18.4273 55.1485 17.617 55.3045 17.149C55.5298 16.4557 55.9111 15.927 56.4485 15.563C56.9945 15.199 57.6531 15.017 58.4245 15.017C59.2045 15.017 59.8631 15.199 60.4005 15.563C60.9465 15.927 61.3321 16.4557 61.5575 17.149C61.7135 17.617 61.7915 18.4273 61.7915 19.58C61.7915 20.7327 61.7135 21.543 61.5575 22.011C61.3321 22.7043 60.9465 23.233 60.4005 23.597C59.8631 23.961 59.2045 24.143 58.4245 24.143ZM58.4245 22.765C59.2565 22.765 59.8068 22.3793 60.0755 21.608C60.1795 21.2873 60.2315 20.6113 60.2315 19.58C60.2315 18.5573 60.1795 17.8813 60.0755 17.552C59.8068 16.7807 59.2565 16.395 58.4245 16.395C57.6011 16.395 57.0551 16.7807 56.7865 17.552C56.6825 17.8813 56.6305 18.5573 56.6305 19.58C56.6305 20.6113 56.6825 21.2873 56.7865 21.608C57.0551 22.3793 57.6011 22.765 58.4245 22.765ZM66.5749 24.143C65.8035 24.143 65.1449 23.961 64.5989 23.597C64.0615 23.233 63.6802 22.7043 63.4549 22.011C63.2989 21.543 63.2209 20.7327 63.2209 19.58C63.2209 18.4273 63.2989 17.617 63.4549 17.149C63.6802 16.4557 64.0615 15.927 64.5989 15.563C65.1449 15.199 65.8035 15.017 66.5749 15.017C67.3549 15.017 68.0135 15.199 68.5509 15.563C69.0969 15.927 69.4825 16.4557 69.7079 17.149C69.8639 17.617 69.9419 18.4273 69.9419 19.58C69.9419 20.7327 69.8639 21.543 69.7079 22.011C69.4825 22.7043 69.0969 23.233 68.5509 23.597C68.0135 23.961 67.3549 24.143 66.5749 24.143ZM66.5749 22.765C67.4069 22.765 67.9572 22.3793 68.2259 21.608C68.3299 21.2873 68.3819 20.6113 68.3819 19.58C68.3819 18.5573 68.3299 17.8813 68.2259 17.552C67.9572 16.7807 67.4069 16.395 66.5749 16.395C65.7515 16.395 65.2055 16.7807 64.9369 17.552C64.8329 17.8813 64.7809 18.5573 64.7809 19.58C64.7809 20.6113 64.8329 21.2873 64.9369 21.608C65.2055 22.3793 65.7515 22.765 66.5749 22.765ZM74.4133 24.143C73.7806 24.143 73.1696 24.0347 72.5803 23.818C71.9909 23.5927 71.5186 23.311 71.1633 22.973C71.0939 22.9037 71.0853 22.8387 71.1373 22.778L71.9433 21.842C72.0039 21.7727 72.0646 21.7683 72.1253 21.829C72.9139 22.453 73.7156 22.765 74.5303 22.765C75.0503 22.765 75.4576 22.648 75.7523 22.414C76.0469 22.18 76.1943 21.8723 76.1943 21.491C76.1943 21.153 76.0729 20.8843 75.8303 20.685C75.5876 20.4857 75.1716 20.347 74.5823 20.269L74.1143 20.204C72.3376 19.9613 71.4493 19.1207 71.4493 17.682C71.4493 16.876 71.7179 16.2303 72.2553 15.745C72.8013 15.2597 73.5293 15.017 74.4393 15.017C75.5659 15.017 76.5193 15.3117 77.2993 15.901C77.3599 15.953 77.3686 16.0137 77.3253 16.083L76.7013 17.045C76.6493 17.1143 76.5886 17.1273 76.5193 17.084C75.8173 16.6247 75.1109 16.395 74.4003 16.395C73.9583 16.395 73.6159 16.5033 73.3733 16.72C73.1306 16.9367 73.0093 17.2227 73.0093 17.578C73.0093 18.2193 73.5509 18.618 74.6343 18.774L75.1023 18.839C76.8616 19.0817 77.7413 19.9353 77.7413 21.4C77.7413 22.2147 77.4509 22.8777 76.8703 23.389C76.2983 23.8917 75.4793 24.143 74.4133 24.143ZM79.2611 23.87V15.29C79.2611 15.2033 79.3045 15.16 79.3911 15.16H84.9291C85.0158 15.16 85.0591 15.2033 85.0591 15.29V16.408C85.0591 16.4947 85.0158 16.538 84.9291 16.538H80.8731C80.8211 16.538 80.7951 16.564 80.7951 16.616V18.774C80.7951 18.826 80.8211 18.852 80.8731 18.852H84.2921C84.3788 18.852 84.4221 18.8953 84.4221 18.982V20.1C84.4221 20.1867 84.3788 20.23 84.2921 20.23H80.8731C80.8211 20.23 80.7951 20.256 80.7951 20.308V22.544C80.7951 22.596 80.8211 22.622 80.8731 22.622H84.9291C85.0158 22.622 85.0591 22.6653 85.0591 22.752V23.87C85.0591 23.9567 85.0158 24 84.9291 24H79.3911C79.3045 24 79.2611 23.9567 79.2611 23.87ZM89.7475 23.87V15.29C89.7475 15.2033 89.7908 15.16 89.8775 15.16H95.4155C95.5021 15.16 95.5455 15.2033 95.5455 15.29V16.408C95.5455 16.4947 95.5021 16.538 95.4155 16.538H91.3595C91.3075 16.538 91.2815 16.564 91.2815 16.616V18.865C91.2815 18.917 91.3075 18.943 91.3595 18.943H94.7785C94.8651 18.943 94.9085 18.9863 94.9085 19.073V20.191C94.9085 20.2777 94.8651 20.321 94.7785 20.321H91.3595C91.3075 20.321 91.2815 20.347 91.2815 20.399V23.87C91.2815 23.9567 91.2381 24 91.1515 24H89.8775C89.7908 24 89.7475 23.9567 89.7475 23.87ZM97.0346 23.87V15.29C97.0346 15.2033 97.0779 15.16 97.1646 15.16H98.4386C98.5252 15.16 98.5686 15.2033 98.5686 15.29V23.87C98.5686 23.9567 98.5252 24 98.4386 24H97.1646C97.0779 24 97.0346 23.9567 97.0346 23.87ZM100.513 23.87V15.29C100.513 15.2033 100.556 15.16 100.643 15.16H101.917C102.004 15.16 102.047 15.2033 102.047 15.29V22.544C102.047 22.596 102.073 22.622 102.125 22.622H106.181C106.268 22.622 106.311 22.6653 106.311 22.752V23.87C106.311 23.9567 106.268 24 106.181 24H100.643C100.556 24 100.513 23.9567 100.513 23.87ZM107.597 23.87V15.29C107.597 15.2033 107.64 15.16 107.727 15.16H113.265C113.352 15.16 113.395 15.2033 113.395 15.29V16.408C113.395 16.4947 113.352 16.538 113.265 16.538H109.209C109.157 16.538 109.131 16.564 109.131 16.616V18.774C109.131 18.826 109.157 18.852 109.209 18.852H112.628C112.715 18.852 112.758 18.8953 112.758 18.982V20.1C112.758 20.1867 112.715 20.23 112.628 20.23H109.209C109.157 20.23 109.131 20.256 109.131 20.308V22.544C109.131 22.596 109.157 22.622 109.209 22.622H113.265C113.352 22.622 113.395 22.6653 113.395 22.752V23.87C113.395 23.9567 113.352 24 113.265 24H107.727C107.64 24 107.597 23.9567 107.597 23.87ZM117.793 24.143C117.16 24.143 116.549 24.0347 115.96 23.818C115.371 23.5927 114.898 23.311 114.543 22.973C114.474 22.9037 114.465 22.8387 114.517 22.778L115.323 21.842C115.384 21.7727 115.444 21.7683 115.505 21.829C116.294 22.453 117.095 22.765 117.91 22.765C118.43 22.765 118.837 22.648 119.132 22.414C119.427 22.18 119.574 21.8723 119.574 21.491C119.574 21.153 119.453 20.8843 119.21 20.685C118.967 20.4857 118.551 20.347 117.962 20.269L117.494 20.204C115.717 19.9613 114.829 19.1207 114.829 17.682C114.829 16.876 115.098 16.2303 115.635 15.745C116.181 15.2597 116.909 15.017 117.819 15.017C118.946 15.017 119.899 15.3117 120.679 15.901C120.74 15.953 120.748 16.0137 120.705 16.083L120.081 17.045C120.029 17.1143 119.968 17.1273 119.899 17.084C119.197 16.6247 118.491 16.395 117.78 16.395C117.338 16.395 116.996 16.5033 116.753 16.72C116.51 16.9367 116.389 17.2227 116.389 17.578C116.389 18.2193 116.931 18.618 118.014 18.774L118.482 18.839C120.241 19.0817 121.121 19.9353 121.121 21.4C121.121 22.2147 120.831 22.8777 120.25 23.389C119.678 23.8917 118.859 24.143 117.793 24.143Z" fill="white"/>
</svg>
