<svg width="10" height="10" viewBox="0 0 10 10" fill="none" xmlns="http://www.w3.org/2000/svg">
<path d="M0.772856 0.0954169C0.621051 0.158409 0.483163 0.250731 0.367093 0.367094C0.25073 0.483164 0.158409 0.621051 0.0954165 0.772856C0.0324244 0.924661 0 1.0874 0 1.25176C0 1.41611 0.0324244 1.57885 0.0954165 1.73066C0.158409 1.88246 0.25073 2.02035 0.367093 2.13642L3.2335 5.00033L0.367093 7.86424C0.250918 7.98041 0.158763 8.11833 0.0958894 8.27012C0.0330156 8.42191 0.000655878 8.5846 0.000655878 8.7489C0.000655878 8.91319 0.0330156 9.07588 0.0958894 9.22768C0.158763 9.37947 0.250918 9.51739 0.367093 9.63356C0.483269 9.74974 0.62119 9.84189 0.772981 9.90477C0.924772 9.96764 1.08746 10 1.25176 10C1.41605 10 1.57874 9.96764 1.73053 9.90477C1.88232 9.84189 2.02024 9.74974 2.13642 9.63356L5.00033 6.76715L7.86424 9.63356C8.09886 9.86819 8.41709 10 8.7489 10C9.08071 10 9.39894 9.86819 9.63356 9.63356C9.86819 9.39893 10 9.08071 10 8.7489C10 8.41708 9.86819 8.09886 9.63356 7.86424L6.76715 5.00033L9.63356 2.13642C9.86819 1.90179 10 1.58357 10 1.25176C10 0.919944 9.86819 0.601722 9.63356 0.367094C9.39894 0.132467 9.08071 0.000655496 8.7489 0.000655496C8.41709 0.000655496 8.09886 0.132467 7.86424 0.367094L5.00033 3.2335L2.13642 0.367094C2.02035 0.250731 1.88246 0.158409 1.73066 0.0954169C1.57885 0.0324248 1.41611 0 1.25176 0C1.0874 0 0.924661 0.0324248 0.772856 0.0954169Z" fill="black"/>
</svg>
