<svg width="44" height="31" viewBox="0 0 44 31" fill="none" xmlns="http://www.w3.org/2000/svg">
<path d="M35.5346 11.4532C34.0484 3.99677 26.7991 -0.842921 19.3427 0.643194C13.889 1.73017 9.62473 5.9918 8.5344 11.4448C3.24757 12.0541 -0.544762 16.8337 0.0641861 22.1209C0.624794 26.9867 4.7461 30.6579 9.6442 30.6545H16.5273C17.2876 30.6545 17.9039 30.0382 17.9039 29.2778C17.9039 28.5175 17.2876 27.9012 16.5273 27.9012H9.6442C5.84248 27.8787 2.77927 24.7789 2.80143 20.9775C2.82392 17.1758 5.92371 14.1122 9.72544 14.1347C10.427 14.1347 11.0165 13.607 11.0937 12.9094C11.7926 6.86762 17.2574 2.53617 23.2995 3.23508C28.3793 3.82255 32.3864 7.82972 32.9739 12.9094C33.0894 13.6194 33.7044 14.1394 34.4234 14.1347C38.2251 14.1347 41.3068 17.2164 41.3068 21.0181C41.3068 24.8195 38.2251 27.9012 34.4234 27.9012H27.5404C26.78 27.9012 26.1637 28.5175 26.1637 29.2778C26.1637 30.0382 26.78 30.6545 27.5404 30.6545H34.4237C39.7455 30.6213 44.033 26.2801 44.0001 20.9583C43.9699 16.1119 40.345 12.042 35.5346 11.4532Z" fill="white"/>
</svg>
