<svg width="16" height="24" viewBox="0 0 16 24" fill="none" xmlns="http://www.w3.org/2000/svg">
<path d="M12.9 15.4766L9.41011 18.9675V1.64133C9.41011 0.880981 8.79378 0.264648 8.03377 0.264648C7.27342 0.264648 6.65709 0.880981 6.65709 1.64133V18.9675L3.16722 15.4766C2.63918 14.9294 1.76738 14.9143 1.22054 15.4427C0.673694 15.9707 0.658588 16.8422 1.18663 17.389C1.19805 17.4008 1.20913 17.4119 1.22054 17.4229L7.05892 23.2627C7.18648 23.3899 7.33754 23.4909 7.50371 23.5601C7.84242 23.7034 8.22478 23.7034 8.56383 23.5601C8.73 23.4909 8.88106 23.3899 9.00829 23.2627L14.8467 17.4229C15.3935 16.8949 15.4086 16.0234 14.8806 15.4766C14.3522 14.9297 13.4807 14.9146 12.9339 15.4427C12.9225 15.4538 12.9111 15.4648 12.9 15.4766Z" fill="white"/>
</svg>
