<svg width="17" height="17" viewBox="0 0 17 17" fill="none" xmlns="http://www.w3.org/2000/svg">
<path fill-rule="evenodd" clip-rule="evenodd" d="M8.31248 0C6.05493 0 5.77188 0.00956899 4.88527 0.0500227C4.00047 0.0904105 3.39623 0.23091 2.86746 0.436412C2.32084 0.648844 1.85728 0.933076 1.39516 1.39519C0.933043 1.85731 0.648811 2.32088 0.436379 2.8675C0.230877 3.39627 0.0903775 4.0005 0.0499897 4.8853C0.009536 5.77188 0 6.05496 0 8.31252C0 10.5701 0.009536 10.8532 0.0499897 11.7397C0.0903775 12.6245 0.230877 13.2288 0.436379 13.7575C0.648811 14.3041 0.933043 14.7677 1.39516 15.2298C1.85728 15.692 2.32084 15.9762 2.86746 16.1886C3.39623 16.3941 4.00047 16.5346 4.88527 16.575C5.77188 16.6155 6.05493 16.625 8.31248 16.625C10.57 16.625 10.8531 16.6155 11.7397 16.575C12.6245 16.5346 13.2287 16.3941 13.7575 16.1886C14.3041 15.9762 14.7677 15.692 15.2298 15.2298C15.6919 14.7677 15.9762 14.3042 16.1886 13.7575C16.3941 13.2288 16.5346 12.6245 16.575 11.7397C16.6154 10.8532 16.625 10.5701 16.625 8.31252C16.625 6.05496 16.6154 5.77188 16.575 4.8853C16.5346 4.0005 16.3941 3.39627 16.1886 2.8675C15.9762 2.32088 15.6919 1.85731 15.2298 1.39519C14.7677 0.933076 14.3041 0.648844 13.7575 0.436412C13.2287 0.23091 12.6245 0.0904105 11.7397 0.0500227C10.8531 0.00956899 10.57 0 8.31248 0ZM8.31032 1.49768C10.5299 1.49768 10.7927 1.50613 11.6693 1.54612C12.4797 1.58311 12.9199 1.71852 13.2128 1.83233C13.6008 1.98312 13.8777 2.16328 14.1686 2.45415C14.4595 2.74501 14.6396 3.02195 14.7904 3.40993C14.9042 3.70287 15.0396 4.14301 15.0766 4.95344C15.1166 5.82999 15.1251 6.09287 15.1251 8.31242C15.1251 10.532 15.1166 10.7948 15.0766 11.6714C15.0396 12.4818 14.9042 12.922 14.7904 13.2149C14.6396 13.6029 14.4595 13.8798 14.1686 14.1707C13.8777 14.4615 13.6008 14.6417 13.2128 14.7925C12.9199 14.9063 12.4797 15.0417 11.6693 15.0787C10.7929 15.1187 10.53 15.1272 8.31032 15.1272C6.09064 15.1272 5.82776 15.1187 4.95137 15.0787C4.14091 15.0417 3.70077 14.9063 3.40786 14.7925C3.01985 14.6417 2.74291 14.4615 2.45205 14.1707C2.16119 13.8798 1.98102 13.6029 1.83026 13.2149C1.71643 12.922 1.58101 12.4818 1.54402 11.6714C1.50403 10.7948 1.49558 10.532 1.49558 8.31242C1.49558 6.09287 1.50403 5.82999 1.54402 4.95347C1.58101 4.14301 1.71643 3.70287 1.83026 3.40993C1.98102 3.02195 2.16119 2.74501 2.45205 2.45415C2.74291 2.16328 3.01985 1.98312 3.40786 1.83233C3.70077 1.71852 4.14091 1.58311 4.95134 1.54612C5.82789 1.50613 6.09077 1.49768 8.31032 1.49768ZM4.04297 8.31303C4.04297 5.95556 5.95409 4.04443 8.31156 4.04443C10.669 4.04443 12.5802 5.95556 12.5802 8.31303C12.5802 10.6705 10.669 12.5816 8.31156 12.5816C5.95409 12.5816 4.04297 10.6705 4.04297 8.31303ZM8.31345 11.0832C6.78317 11.0832 5.5426 9.84268 5.5426 8.3124C5.5426 6.78212 6.78317 5.54155 8.31345 5.54155C9.84373 5.54155 11.0843 6.78212 11.0843 8.3124C11.0843 9.84268 9.84373 11.0832 8.31345 11.0832ZM12.7475 4.87244C13.2984 4.87244 13.745 4.42584 13.745 3.87493C13.745 3.32402 13.2984 2.87744 12.7475 2.87744C12.1966 2.87744 11.75 3.32402 11.75 3.87493C11.75 4.42584 12.1966 4.87244 12.7475 4.87244Z" fill="white"/>
</svg>
