<svg width="14" height="13" viewBox="0 0 14 13" fill="none" xmlns="http://www.w3.org/2000/svg">
<mask id="mask0" style="mask-type:alpha" maskUnits="userSpaceOnUse" x="0" y="0" width="14" height="13">
<path fill-rule="evenodd" clip-rule="evenodd" d="M13.3593 0H0L0 12.5425H13.3593V0V0Z" fill="white"/>
</mask>
<g mask="url(#mask0)">
<path fill-rule="evenodd" clip-rule="evenodd" d="M10.2103 3.74847C8.96767 3.74847 8.17983 4.37888 7.70654 5.1496H7.67148L7.68901 3.90632H4.88723V12.5421H7.68901V8.26852C7.68901 7.02427 8.02109 6.04309 9.22964 6.04309C10.3856 6.04309 10.5599 6.9015 10.5599 8.04052V12.5421H13.3617V7.44421C13.3617 5.36006 12.7141 3.74847 10.2103 3.74847ZM0.190448 12.5424H2.99125V3.90566H0.190448V12.5424ZM1.59322 -0.000976562C0.647611 -0.000976562 0 0.595331 0 1.45374C0 2.32872 0.647611 2.90749 1.59322 2.90749C2.53883 2.90749 3.18644 2.32872 3.18644 1.45374C3.18644 0.595331 2.53883 -0.000976562 1.59322 -0.000976562Z" fill="white"/>
</g>
</svg>
