<svg width="36" height="36" viewBox="0 0 36 36" fill="none" xmlns="http://www.w3.org/2000/svg">
<path fill-rule="evenodd" clip-rule="evenodd" d="M18 1.61798C27.0332 1.61798 34.382 8.96683 34.382 18C34.382 21.9948 32.9412 25.6571 30.5563 28.5031C27.9457 24.2947 23.2867 21.49 17.9709 21.49C12.6704 21.49 8.02517 24.2794 5.41052 28.4667C3.04503 25.6255 1.61798 21.977 1.61798 18C1.61798 8.96683 8.96683 1.61798 18 1.61798ZM18 0C8.07452 0 0 8.07452 0 18C0 27.9255 8.07452 36 18 36C27.9255 36 36 27.9255 36 18C36 8.07452 27.9255 0 18 0Z" fill="#A9D9BC"/>
<path fill-rule="evenodd" clip-rule="evenodd" d="M17.9709 19.7022C21.8661 19.7022 25.0236 16.5447 25.0236 12.6494C25.0236 8.75416 21.8661 5.59668 17.9709 5.59668C14.0756 5.59668 10.9181 8.75416 10.9181 12.6494C10.9181 16.5447 14.0756 19.7022 17.9709 19.7022Z" fill="#A9D9BC"/>
</svg>
