<svg width="99" height="12" viewBox="0 0 99 12" fill="none" xmlns="http://www.w3.org/2000/svg">
<path d="M3.6228 9.143C2.98146 9.143 2.43113 8.99133 1.9718 8.688C1.52113 8.38467 1.20913 7.96 1.0358 7.414C0.89713 6.98933 0.827797 6.47367 0.827797 5.867C0.827797 5.26033 0.89713 4.74467 1.0358 4.32C1.20913 3.774 1.52113 3.34933 1.9718 3.046C2.43113 2.74267 2.98146 2.591 3.6228 2.591C4.25546 2.591 4.79713 2.74267 5.2478 3.046C5.70713 3.34933 6.02346 3.774 6.1968 4.32C6.33546 4.74467 6.4048 5.26033 6.4048 5.867C6.4048 6.47367 6.33546 6.98933 6.1968 7.414C6.02346 7.96 5.70713 8.38467 5.2478 8.688C4.79713 8.99133 4.25546 9.143 3.6228 9.143ZM3.6228 7.843C4.21213 7.843 4.60213 7.57 4.7928 7.024C4.87946 6.75533 4.9228 6.36967 4.9228 5.867C4.9228 5.373 4.87946 4.98733 4.7928 4.71C4.60213 4.164 4.21213 3.891 3.6228 3.891C3.0248 3.891 2.63046 4.164 2.4398 4.71C2.35313 4.98733 2.3098 5.373 2.3098 5.867C2.3098 6.36967 2.35313 6.75533 2.4398 7.024C2.63046 7.57 3.0248 7.843 3.6228 7.843ZM9.29648 9H8.10048C8.01382 9 7.97048 8.95667 7.97048 8.87V2.864C7.97048 2.77733 8.01382 2.734 8.10048 2.734H9.29648C9.38315 2.734 9.42648 2.77733 9.42648 2.864V3.397H9.43948C9.77748 2.85967 10.3192 2.591 11.0645 2.591C11.5932 2.591 12.0308 2.76433 12.3775 3.111C12.4382 3.17167 12.4468 3.23233 12.4035 3.293L11.7145 4.164C11.6625 4.23333 11.6018 4.242 11.5325 4.19C11.2205 3.99067 10.9128 3.891 10.6095 3.891C9.82082 3.891 9.42648 4.41967 9.42648 5.477V8.87C9.42648 8.95667 9.38315 9 9.29648 9ZM21.5968 9H20.4008C20.3142 9 20.2708 8.95667 20.2708 8.87V8.402H20.2578C19.9112 8.896 19.3565 9.143 18.5938 9.143C17.4758 9.143 16.7522 8.64033 16.4228 7.635C16.2755 7.18433 16.2018 6.595 16.2018 5.867C16.2018 5.139 16.2755 4.54967 16.4228 4.099C16.7522 3.09367 17.4758 2.591 18.5938 2.591C19.3565 2.591 19.9112 2.838 20.2578 3.332H20.2708V0.29C20.2708 0.203333 20.3142 0.16 20.4008 0.16H21.5968C21.6835 0.16 21.7268 0.203333 21.7268 0.29V8.87C21.7268 8.95667 21.6835 9 21.5968 9ZM18.9708 7.843C19.5775 7.843 19.9675 7.57433 20.1408 7.037C20.2275 6.76833 20.2708 6.37833 20.2708 5.867C20.2708 5.35567 20.2275 4.96567 20.1408 4.697C19.9675 4.15967 19.5775 3.891 18.9708 3.891C18.3728 3.891 17.9872 4.15967 17.8138 4.697C17.7272 4.96567 17.6838 5.35567 17.6838 5.867C17.6838 6.37833 17.7272 6.76833 17.8138 7.037C17.9872 7.57433 18.3728 7.843 18.9708 7.843ZM24.9498 9H23.7538C23.6671 9 23.6238 8.95667 23.6238 8.87V2.864C23.6238 2.77733 23.6671 2.734 23.7538 2.734H24.9498C25.0365 2.734 25.0798 2.77733 25.0798 2.864V3.397H25.0928C25.4308 2.85967 25.9725 2.591 26.7178 2.591C27.2465 2.591 27.6841 2.76433 28.0308 3.111C28.0915 3.17167 28.1001 3.23233 28.0568 3.293L27.3678 4.164C27.3158 4.23333 27.2551 4.242 27.1858 4.19C26.8738 3.99067 26.5661 3.891 26.2628 3.891C25.4741 3.891 25.0798 4.41967 25.0798 5.477V8.87C25.0798 8.95667 25.0365 9 24.9498 9ZM31.4509 9.143C30.8096 9.143 30.2593 8.99133 29.7999 8.688C29.3493 8.38467 29.0373 7.96 28.8639 7.414C28.7253 6.98933 28.6559 6.47367 28.6559 5.867C28.6559 5.26033 28.7253 4.74467 28.8639 4.32C29.0373 3.774 29.3493 3.34933 29.7999 3.046C30.2593 2.74267 30.8096 2.591 31.4509 2.591C32.0836 2.591 32.6253 2.74267 33.0759 3.046C33.5353 3.34933 33.8516 3.774 34.0249 4.32C34.1636 4.74467 34.2329 5.26033 34.2329 5.867C34.2329 6.47367 34.1636 6.98933 34.0249 7.414C33.8516 7.96 33.5353 8.38467 33.0759 8.688C32.6253 8.99133 32.0836 9.143 31.4509 9.143ZM31.4509 7.843C32.0403 7.843 32.4303 7.57 32.6209 7.024C32.7076 6.75533 32.7509 6.36967 32.7509 5.867C32.7509 5.373 32.7076 4.98733 32.6209 4.71C32.4303 4.164 32.0403 3.891 31.4509 3.891C30.8529 3.891 30.4586 4.164 30.2679 4.71C30.1813 4.98733 30.1379 5.373 30.1379 5.867C30.1379 6.36967 30.1813 6.75533 30.2679 7.024C30.4586 7.57 30.8529 7.843 31.4509 7.843ZM37.1246 11.34H35.9286C35.8419 11.34 35.7986 11.2967 35.7986 11.21V2.864C35.7986 2.77733 35.8419 2.734 35.9286 2.734H37.1246C37.2113 2.734 37.2546 2.77733 37.2546 2.864V3.332H37.2676C37.6143 2.838 38.1689 2.591 38.9316 2.591C40.0496 2.591 40.7733 3.09367 41.1026 4.099C41.2499 4.54967 41.3236 5.139 41.3236 5.867C41.3236 6.595 41.2499 7.18433 41.1026 7.635C40.7733 8.64033 40.0496 9.143 38.9316 9.143C38.1689 9.143 37.6143 8.896 37.2676 8.402H37.2546V11.21C37.2546 11.2967 37.2113 11.34 37.1246 11.34ZM38.5546 7.843C39.1526 7.843 39.5383 7.57433 39.7116 7.037C39.7983 6.76833 39.8416 6.37833 39.8416 5.867C39.8416 5.35567 39.7983 4.96567 39.7116 4.697C39.5383 4.15967 39.1526 3.891 38.5546 3.891C37.9479 3.891 37.5579 4.15967 37.3846 4.697C37.2979 4.96567 37.2546 5.35567 37.2546 5.867C37.2546 6.37833 37.2979 6.76833 37.3846 7.037C37.5579 7.57433 37.9479 7.843 38.5546 7.843ZM47.4759 9H46.2799C46.1932 9 46.1499 8.95667 46.1499 8.87V3.943C46.1499 3.891 46.1239 3.865 46.0719 3.865H45.6559C45.5692 3.865 45.5259 3.82167 45.5259 3.735V2.864C45.5259 2.77733 45.5692 2.734 45.6559 2.734H46.0719C46.1239 2.734 46.1499 2.708 46.1499 2.656V2.253C46.1499 0.857666 46.8432 0.16 48.2299 0.16H48.8019C48.8885 0.16 48.9319 0.203333 48.9319 0.29V1.33C48.9319 1.41667 48.8885 1.46 48.8019 1.46H48.3989C48.0782 1.46 47.8659 1.512 47.7619 1.616C47.6579 1.71133 47.6059 1.915 47.6059 2.227V2.656C47.6059 2.708 47.6319 2.734 47.6839 2.734H48.8019C48.8885 2.734 48.9319 2.77733 48.9319 2.864V3.735C48.9319 3.82167 48.8885 3.865 48.8019 3.865H47.6839C47.6319 3.865 47.6059 3.891 47.6059 3.943V8.87C47.6059 8.95667 47.5625 9 47.4759 9ZM51.5449 1.551H50.3489C50.2622 1.551 50.2189 1.50767 50.2189 1.421V0.29C50.2189 0.203333 50.2622 0.16 50.3489 0.16H51.5449C51.6315 0.16 51.6749 0.203333 51.6749 0.29V1.421C51.6749 1.50767 51.6315 1.551 51.5449 1.551ZM51.5449 9H50.3489C50.2622 9 50.2189 8.95667 50.2189 8.87V2.864C50.2189 2.77733 50.2622 2.734 50.3489 2.734H51.5449C51.6315 2.734 51.6749 2.77733 51.6749 2.864V8.87C51.6749 8.95667 51.6315 9 51.5449 9ZM55.834 9.078H55.262C54.6554 9.078 54.2177 8.935 53.949 8.649C53.6804 8.35433 53.546 7.89933 53.546 7.284V0.29C53.546 0.203333 53.5894 0.16 53.676 0.16H54.872C54.9587 0.16 55.002 0.203333 55.002 0.29V7.206C55.002 7.414 55.0454 7.56133 55.132 7.648C55.2187 7.73467 55.3574 7.778 55.548 7.778H55.834C55.9207 7.778 55.964 7.82133 55.964 7.908V8.948C55.964 9.03467 55.9207 9.078 55.834 9.078ZM59.8513 9.143C59.1926 9.143 58.6336 8.99133 58.1743 8.688C57.7236 8.376 57.4116 7.947 57.2383 7.401C57.0909 6.94167 57.0173 6.43033 57.0173 5.867C57.0173 5.269 57.0866 4.75333 57.2253 4.32C57.3986 3.774 57.7106 3.34933 58.1613 3.046C58.6206 2.74267 59.1623 2.591 59.7863 2.591C60.4276 2.591 60.9736 2.747 61.4243 3.059C61.8749 3.36233 62.1869 3.78267 62.3603 4.32C62.4989 4.74467 62.5683 5.373 62.5683 6.205C62.5683 6.29167 62.5206 6.335 62.4253 6.335H58.5643C58.5123 6.335 58.4863 6.361 58.4863 6.413C58.4863 6.569 58.5166 6.72933 58.5773 6.894C58.7939 7.52667 59.2619 7.843 59.9813 7.843C60.5966 7.843 61.0863 7.64367 61.4503 7.245C61.5196 7.17567 61.5846 7.167 61.6453 7.219L62.4123 7.895C62.4729 7.947 62.4773 8.00767 62.4253 8.077C61.8186 8.78767 60.9606 9.143 59.8513 9.143ZM61.0993 5.165C61.0993 4.96567 61.0733 4.788 61.0213 4.632C60.9346 4.38067 60.7829 4.18567 60.5663 4.047C60.3496 3.89967 60.0939 3.826 59.7993 3.826C59.1579 3.826 58.7463 4.09467 58.5643 4.632C58.5123 4.788 58.4863 4.96567 58.4863 5.165C58.4863 5.217 58.5123 5.243 58.5643 5.243H61.0213C61.0733 5.243 61.0993 5.217 61.0993 5.165ZM66.4485 9.143C65.3652 9.143 64.4682 8.81367 63.7575 8.155C63.6969 8.09433 63.6969 8.03367 63.7575 7.973L64.4985 7.193C64.5592 7.13233 64.6199 7.13233 64.6805 7.193C64.9145 7.401 65.1962 7.57433 65.5255 7.713C65.8635 7.843 66.1929 7.908 66.5135 7.908C66.8862 7.908 67.1722 7.843 67.3715 7.713C67.5709 7.57433 67.6705 7.39233 67.6705 7.167C67.6705 6.96767 67.5925 6.81167 67.4365 6.699C67.2892 6.58633 67.0205 6.51267 66.6305 6.478L65.9545 6.413C64.6719 6.283 64.0305 5.66767 64.0305 4.567C64.0305 3.95167 64.2429 3.47067 64.6675 3.124C65.0922 2.76867 65.6902 2.591 66.4615 2.591C67.3802 2.591 68.1645 2.84667 68.8145 3.358C68.8839 3.41 68.8925 3.47067 68.8405 3.54L68.2035 4.307C68.1515 4.36767 68.0909 4.37633 68.0215 4.333C67.5275 3.98633 66.9815 3.813 66.3835 3.813C66.0802 3.813 65.8462 3.87367 65.6815 3.995C65.5169 4.11633 65.4345 4.27233 65.4345 4.463C65.4345 4.65367 65.5082 4.80533 65.6555 4.918C65.8115 5.022 66.0802 5.09133 66.4615 5.126L67.1375 5.191C67.7789 5.25167 68.2599 5.44233 68.5805 5.763C68.9099 6.08367 69.0745 6.504 69.0745 7.024C69.0745 7.66533 68.8449 8.181 68.3855 8.571C67.9349 8.95233 67.2892 9.143 66.4485 9.143ZM78.8424 9H77.6464C77.5598 9 77.5164 8.95667 77.5164 8.87V5.256C77.5164 4.84 77.4124 4.51067 77.2044 4.268C77.0051 4.01667 76.7148 3.891 76.3334 3.891C75.9608 3.891 75.6661 4.01667 75.4494 4.268C75.2414 4.51933 75.1374 4.84867 75.1374 5.256V8.87C75.1374 8.95667 75.0941 9 75.0074 9H73.8114C73.7248 9 73.6814 8.95667 73.6814 8.87V0.29C73.6814 0.203333 73.7248 0.16 73.8114 0.16H75.0074C75.0941 0.16 75.1374 0.203333 75.1374 0.29V3.319H75.1504C75.4884 2.83367 76.0388 2.591 76.8014 2.591C77.4601 2.591 77.9844 2.80767 78.3744 3.241C78.7731 3.67433 78.9724 4.23333 78.9724 4.918V8.87C78.9724 8.95667 78.9291 9 78.8424 9ZM83.2995 9.143C82.6408 9.143 82.0818 8.99133 81.6225 8.688C81.1718 8.376 80.8598 7.947 80.6865 7.401C80.5392 6.94167 80.4655 6.43033 80.4655 5.867C80.4655 5.269 80.5348 4.75333 80.6735 4.32C80.8468 3.774 81.1588 3.34933 81.6095 3.046C82.0688 2.74267 82.6105 2.591 83.2345 2.591C83.8758 2.591 84.4218 2.747 84.8725 3.059C85.3232 3.36233 85.6352 3.78267 85.8085 4.32C85.9472 4.74467 86.0165 5.373 86.0165 6.205C86.0165 6.29167 85.9688 6.335 85.8735 6.335H82.0125C81.9605 6.335 81.9345 6.361 81.9345 6.413C81.9345 6.569 81.9648 6.72933 82.0255 6.894C82.2422 7.52667 82.7102 7.843 83.4295 7.843C84.0448 7.843 84.5345 7.64367 84.8985 7.245C84.9678 7.17567 85.0328 7.167 85.0935 7.219L85.8605 7.895C85.9212 7.947 85.9255 8.00767 85.8735 8.077C85.2668 8.78767 84.4088 9.143 83.2995 9.143ZM84.5475 5.165C84.5475 4.96567 84.5215 4.788 84.4695 4.632C84.3828 4.38067 84.2312 4.18567 84.0145 4.047C83.7978 3.89967 83.5422 3.826 83.2475 3.826C82.6062 3.826 82.1945 4.09467 82.0125 4.632C81.9605 4.788 81.9345 4.96567 81.9345 5.165C81.9345 5.217 81.9605 5.243 82.0125 5.243H84.4695C84.5215 5.243 84.5475 5.217 84.5475 5.165ZM88.9088 9H87.7128C87.6261 9 87.5828 8.95667 87.5828 8.87V2.864C87.5828 2.77733 87.6261 2.734 87.7128 2.734H88.9088C88.9955 2.734 89.0388 2.77733 89.0388 2.864V3.397H89.0518C89.3898 2.85967 89.9315 2.591 90.6768 2.591C91.2055 2.591 91.6431 2.76433 91.9898 3.111C92.0505 3.17167 92.0591 3.23233 92.0158 3.293L91.3268 4.164C91.2748 4.23333 91.2141 4.242 91.1448 4.19C90.8328 3.99067 90.5251 3.891 90.2218 3.891C89.4331 3.891 89.0388 4.41967 89.0388 5.477V8.87C89.0388 8.95667 88.9955 9 88.9088 9ZM95.4489 9.143C94.7902 9.143 94.2312 8.99133 93.7719 8.688C93.3212 8.376 93.0092 7.947 92.8359 7.401C92.6886 6.94167 92.6149 6.43033 92.6149 5.867C92.6149 5.269 92.6842 4.75333 92.8229 4.32C92.9962 3.774 93.3082 3.34933 93.7589 3.046C94.2182 2.74267 94.7599 2.591 95.3839 2.591C96.0252 2.591 96.5712 2.747 97.0219 3.059C97.4726 3.36233 97.7846 3.78267 97.9579 4.32C98.0966 4.74467 98.1659 5.373 98.1659 6.205C98.1659 6.29167 98.1182 6.335 98.0229 6.335H94.1619C94.1099 6.335 94.0839 6.361 94.0839 6.413C94.0839 6.569 94.1142 6.72933 94.1749 6.894C94.3916 7.52667 94.8596 7.843 95.5789 7.843C96.1942 7.843 96.6839 7.64367 97.0479 7.245C97.1172 7.17567 97.1822 7.167 97.2429 7.219L98.0099 7.895C98.0706 7.947 98.0749 8.00767 98.0229 8.077C97.4162 8.78767 96.5582 9.143 95.4489 9.143ZM96.6969 5.165C96.6969 4.96567 96.6709 4.788 96.6189 4.632C96.5322 4.38067 96.3806 4.18567 96.1639 4.047C95.9472 3.89967 95.6916 3.826 95.3969 3.826C94.7556 3.826 94.3439 4.09467 94.1619 4.632C94.1099 4.788 94.0839 4.96567 94.0839 5.165C94.0839 5.217 94.1099 5.243 94.1619 5.243H96.6189C96.6709 5.243 96.6969 5.217 96.6969 5.165Z" fill="white"/>
</svg>
