<svg width="19" height="19" viewBox="0 0 19 19" fill="none" xmlns="http://www.w3.org/2000/svg">
<g clip-path="url(#clip0_542:61164)">
<path d="M2.43579 4.84215L3.39579 3.88965L15.9358 16.4296L14.9833 17.3896L12.6733 15.0796C11.8108 15.3646 10.8958 15.5146 9.93579 15.5146C6.18579 15.5146 2.98329 13.1821 1.68579 9.88965C2.20329 8.56965 3.02829 7.40715 4.07829 6.48465L2.43579 4.84215ZM9.93579 7.63965C10.5325 7.63965 11.1048 7.8767 11.5268 8.29866C11.9487 8.72061 12.1858 9.29291 12.1858 9.88965C12.1858 10.1521 12.1408 10.4071 12.0583 10.6396L9.18579 7.76715C9.41829 7.68465 9.67329 7.63965 9.93579 7.63965ZM9.93579 4.26465C13.6858 4.26465 16.8883 6.59715 18.1858 9.88965C17.5708 11.4496 16.5283 12.7996 15.1858 13.7821L14.1208 12.7096C15.1408 12.0046 15.9808 11.0446 16.5508 9.88965C15.3133 7.36965 12.7558 5.76465 9.93579 5.76465C9.11829 5.76465 8.31579 5.89965 7.56579 6.13965L6.41079 4.99215C7.49079 4.52715 8.68329 4.26465 9.93579 4.26465ZM3.32079 9.88965C4.55829 12.4096 7.11579 14.0146 9.93579 14.0146C10.4533 14.0146 10.9633 13.9621 11.4358 13.8571L9.72579 12.1396C8.65329 12.0271 7.79829 11.1721 7.68579 10.0996L5.13579 7.54215C4.39329 8.17965 3.77079 8.97465 3.32079 9.88965Z" fill="#00ADEE"/>
</g>
<defs>
<clipPath id="clip0_542:61164">
<rect width="18" height="18" fill="white" transform="translate(0.935791 0.889648)"/>
</clipPath>
</defs>
</svg>
