<svg width="10" height="9" viewBox="0 0 10 9" fill="none" xmlns="http://www.w3.org/2000/svg">
<path d="M0.142817 0.03125C0.0647502 0.03125 0.00254323 0.0964924 0.00626198 0.174477L0.367199 7.74984C0.400559 8.45094 0.976418 9 1.67806 9H8.32204C9.02368 9 9.59954 8.45094 9.6329 7.74984L9.99384 0.174477C9.99756 0.0964924 9.93535 0.03125 9.85729 0.03125H0.142817ZM6.75005 1.125C6.75005 0.883281 6.94583 0.6875 7.18755 0.6875C7.42927 0.6875 7.62505 0.883281 7.62505 1.125V6.8125C7.62505 7.05422 7.42927 7.25 7.18755 7.25C6.94583 7.25 6.75005 7.05422 6.75005 6.8125V1.125ZM4.56255 1.125C4.56255 0.883281 4.75833 0.6875 5.00005 0.6875C5.24177 0.6875 5.43755 0.883281 5.43755 1.125V6.8125C5.43755 7.05422 5.24177 7.25 5.00005 7.25C4.75833 7.25 4.56255 7.05422 4.56255 6.8125V1.125ZM2.37505 1.125C2.37505 0.883281 2.57083 0.6875 2.81255 0.6875C3.05427 0.6875 3.25005 0.883281 3.25005 1.125V6.8125C3.25005 7.05422 3.05427 7.25 2.81255 7.25C2.57083 7.25 2.37505 7.05422 2.37505 6.8125V1.125Z" fill="#FF6158"/>
</svg>
