<svg width="12" height="5" viewBox="0 0 12 5" fill="none" xmlns="http://www.w3.org/2000/svg">
<path d="M10.5938 1.75H8.1875V1.3125C8.1875 0.587617 7.59988 0 6.875 0H5.125C4.40012 0 3.8125 0.587617 3.8125 1.3125V1.75H1.40625C0.802199 1.75 0.3125 2.2397 0.3125 2.84375V3.71875C0.3125 3.96039 0.508363 4.15625 0.75 4.15625H11.25C11.4916 4.15625 11.6875 3.96039 11.6875 3.71875V2.84375C11.6875 2.2397 11.1978 1.75 10.5938 1.75ZM4.6875 1.3125C4.6875 1.07133 4.88383 0.875 5.125 0.875H6.875C7.11617 0.875 7.3125 1.07133 7.3125 1.3125V1.75H4.6875V1.3125Z" fill="#FF6158"/>
</svg>
