<?xml version="1.0" encoding="utf-8"?>
<!-- Svg Vector Icons : http://www.onlinewebfonts.com/icon -->
<!DOCTYPE svg PUBLIC "-//W3C//DTD SVG 1.1//EN" "http://www.w3.org/Graphics/SVG/1.1/DTD/svg11.dtd">
<svg version="1.1" xmlns="http://www.w3.org/2000/svg" xmlns:xlink="http://www.w3.org/1999/xlink" x="0px" y="0px" viewBox="0 0 1000 1000" enable-background="new 0 0 1000 1000" xml:space="preserve">
<metadata> Svg Vector Icons : http://www.onlinewebfonts.com/icon </metadata>
<g><path fill="#fff" d="M990,193.4c-2.9,2-6.2,3.5-8.6,6C762.8,428.9,544.2,658.5,325.6,888.2c-1.1,1.1-1.8,2.5-2.7,3.8c-1.1,0-2.1,0-3.2,0c-1.8-2.5-3.4-5.2-5.5-7.4C215.7,780.8,117,677,18.3,573.3c-2.5-2.6-5.5-4.6-8.3-6.9c0-1.1,0-2.1,0-3.2c27.2-24.8,54.4-49.6,83-75.5c73,76.7,150.5,158.1,230.1,241.6c3.4-4.6,5.9-8.8,9.1-12.2c191.6-201.4,383.3-402.7,575-604.1c1.4-1.5,2.5-3.3,3.8-5c1.1,0,2.1,0,3.2,0c25.3,26.3,50.6,52.7,75.9,79C990,189.1,990,191.2,990,193.4z"/></g>
</svg>