<svg width="26" height="20" viewBox="0 0 26 20" fill="none" xmlns="http://www.w3.org/2000/svg">
<path d="M21.166 5.33366L16.4993 10.0003H19.9993C19.9993 11.8568 19.2619 13.6373 17.9491 14.9501C16.6363 16.2628 14.8559 17.0003 12.9993 17.0003C11.8327 17.0003 10.701 16.7087 9.73268 16.1837L8.02935 17.887C9.46435 18.797 11.1677 19.3337 12.9993 19.3337C15.4747 19.3337 17.8487 18.3503 19.599 16.6C21.3494 14.8496 22.3327 12.4757 22.3327 10.0003H25.8327L21.166 5.33366ZM5.99935 10.0003C5.99935 8.14381 6.73685 6.36333 8.0496 5.05058C9.36236 3.73782 11.1428 3.00033 12.9993 3.00033C14.166 3.00033 15.2977 3.29199 16.266 3.81699L17.9693 2.11366C16.5343 1.20366 14.831 0.666992 12.9993 0.666992C10.524 0.666992 8.15002 1.65032 6.39969 3.40066C4.64935 5.151 3.66602 7.52497 3.66602 10.0003H0.166016L4.83268 14.667L9.49935 10.0003" fill="#69BEB5"/>
</svg>
