<svg width="15" height="14" viewBox="0 0 15 14" fill="none" xmlns="http://www.w3.org/2000/svg">
<mask id="mask0" style="mask-type:alpha" maskUnits="userSpaceOnUse" x="0" y="0" width="15" height="14">
<path fill-rule="evenodd" clip-rule="evenodd" d="M0 6.56226V0H14.6078V6.56226V13.1245H0V6.56226Z" fill="white"/>
</mask>
<g mask="url(#mask0)">
<path fill-rule="evenodd" clip-rule="evenodd" d="M0 11.6358C1.32639 12.5761 2.9011 13.1246 4.59366 13.1246C10.1066 13.1246 13.1207 8.07549 13.1207 3.69769C13.1207 3.55446 13.1178 3.41123 13.1119 3.26897C13.6982 2.80226 14.2056 2.21764 14.6078 1.5541C14.0702 1.81718 13.4927 1.99549 12.886 2.07538C13.5054 1.66518 13.9806 1.01626 14.2036 0.242615C13.6252 0.621641 12.9844 0.897385 12.3007 1.04646C11.7544 0.40241 10.9763 0 10.1135 0C8.45888 0 7.11691 1.48395 7.11691 3.31282C7.11691 3.57297 7.1432 3.82631 7.19384 4.06795C4.7037 3.93056 2.49501 2.61128 1.0167 0.607026C0.758631 1.09615 0.611579 1.66518 0.611579 2.27221C0.611579 3.42195 1.14038 4.43626 1.94478 5.02964C1.45299 5.01308 0.991381 4.864 0.587233 4.61554C0.587233 4.62918 0.587233 4.6438 0.587233 4.65744C0.587233 6.26221 1.61952 7.60195 2.9907 7.90595C2.73944 7.98195 2.47456 8.02287 2.20091 8.02287C2.00808 8.02287 1.82013 8.00144 1.63704 7.96246C2.01879 9.27979 3.12509 10.2376 4.43687 10.2639C3.4114 11.1525 2.1191 11.6826 0.714807 11.6826C0.473292 11.6826 0.234698 11.667 0 11.6358Z" fill="white"/>
</g>
</svg>
