<svg width="21" height="15" viewBox="0 0 21 15" fill="none" xmlns="http://www.w3.org/2000/svg">
<path fill-rule="evenodd" clip-rule="evenodd" d="M17.9658 0.4275C18.8371 0.663275 19.5177 1.34391 19.7535 2.21523C20.4207 4.9007 20.2665 9.14202 19.7665 11.9311C19.5307 12.8025 18.8501 13.4831 17.9787 13.7189C16.4112 14.1464 10.1024 14.1464 10.1024 14.1464C10.1024 14.1464 3.79351 14.1464 2.22601 13.7189C1.3547 13.4831 0.674061 12.8025 0.438286 11.9311C-0.23276 9.25732 -0.0488052 5.01341 0.425331 2.22818C0.661106 1.35687 1.34174 0.67623 2.21306 0.440455C3.78056 0.0129545 10.0894 0 10.0894 0C10.0894 0 16.3983 0 17.9658 0.4275ZM13.3157 7.07336L8.08203 10.1047V4.04199L13.3157 7.07336Z" fill="white"/>
</svg>
